{
	"asset":{
		"generator":"Khronos glTF Blender I/O v3.5.30",
		"version":"2.0"
	},
	"scene":0,
	"scenes":[
		{
			"name":"Scene",
			"nodes":[
				0
			]
		}
	],
	"nodes":[
		{
			"mesh":0,
			"name":"Model.001",
			"rotation":[
				0,
				-0.7071068286895752,
				-0.7071068286895752,
				0
			],
			"scale":[
				1.0006839036941528,
				1.0006836652755737,
				1.0006836652755737
			]
		}
	],
	"materials":[
		{
			"name":"FrontCol.002",
			"pbrMetallicRoughness":{
				"metallicFactor":0,
				"roughnessFactor":0
			}
		}
	],
	"meshes":[
		{
			"name":"Model.002",
			"primitives":[
				{
					"attributes":{
						"POSITION":0,
						"TEXCOORD_0":1,
						"NORMAL":2
					},
					"indices":3,
					"material":0
				}
			]
		}
	],
	"accessors":[
		{
			"bufferView":0,
			"componentType":5126,
			"count":320,
			"max":[
				6.475216865539551,
				18.369009017944336,
				2.3330941200256348
			],
			"min":[
				-6.475216865539551,
				-0.4964596927165985,
				-7.888609052210118e-31
			],
			"type":"VEC3"
		},
		{
			"bufferView":1,
			"componentType":5126,
			"count":320,
			"type":"VEC2"
		},
		{
			"bufferView":2,
			"componentType":5126,
			"count":320,
			"type":"VEC3"
		},
		{
			"bufferView":3,
			"componentType":5123,
			"count":726,
			"type":"SCALAR"
		}
	],
	"bufferViews":[
		{
			"buffer":0,
			"byteLength":3840,
			"byteOffset":0,
			"target":34962
		},
		{
			"buffer":0,
			"byteLength":2560,
			"byteOffset":3840,
			"target":34962
		},
		{
			"buffer":0,
			"byteLength":3840,
			"byteOffset":6400,
			"target":34962
		},
		{
			"buffer":0,
			"byteLength":1452,
			"byteOffset":10240,
			"target":34963
		}
	],
	"buffers":[
		{
			"byteLength":11692,
			"uri":"data:application/octet-stream;base64,"
		}
	]
}
