{
	"asset":{
		"generator":"Khronos glTF Blender I/O v3.5.30",
		"version":"2.0"
	},
	"scene":0,
	"scenes":[
		{
			"name":"Scene",
			"nodes":[
				0,
				1
			]
		}
	],
	"nodes":[
		{
			"name":"Model",
			"rotation":[
				0,
				-0.7071068286895752,
				-0.7071068286895752,
				0
			]
		},
		{
			"mesh":0,
			"name":"Model.001",
			"rotation":[
				0,
				-0.7071068286895752,
				-0.7071068286895752,
				0
			],
			"scale":[
				1.000684142112732,
				1.0006837844848633,
				1.0006837844848633
			]
		}
	],
	"materials":[
		{
			"name":"FrontCol.001",
			"pbrMetallicRoughness":{
				"metallicFactor":0,
				"roughnessFactor":0
			}
		}
	],
	"meshes":[
		{
			"name":"Model.001",
			"primitives":[
				{
					"attributes":{
						"POSITION":0,
						"TEXCOORD_0":1,
						"NORMAL":2
					},
					"indices":3,
					"material":0
				}
			]
		}
	],
	"accessors":[
		{
			"bufferView":0,
			"componentType":5126,
			"count":107,
			"max":[
				6.475216865539551,
				18.369009017944336,
				0.49965834617614746
			],
			"min":[
				-6.475216865539551,
				-0.4964596927165985,
				-7.888609052210118e-31
			],
			"type":"VEC3"
		},
		{
			"bufferView":1,
			"componentType":5126,
			"count":107,
			"type":"VEC2"
		},
		{
			"bufferView":2,
			"componentType":5126,
			"count":107,
			"type":"VEC3"
		},
		{
			"bufferView":3,
			"componentType":5123,
			"count":363,
			"type":"SCALAR"
		}
	],
	"bufferViews":[
		{
			"buffer":0,
			"byteLength":1284,
			"byteOffset":0,
			"target":34962
		},
		{
			"buffer":0,
			"byteLength":856,
			"byteOffset":1284,
			"target":34962
		},
		{
			"buffer":0,
			"byteLength":1284,
			"byteOffset":2140,
			"target":34962
		},
		{
			"buffer":0,
			"byteLength":726,
			"byteOffset":3424,
			"target":34963
		}
	],
	"buffers":[
		{
			"byteLength":4152,
			"uri":"data:application/octet-stream;base64,"
		}
	]
}
