<?xml version="1.0" encoding="UTF-8" standalone="no"?>
<!-- Created with Inkscape (http://www.inkscape.org/) -->

<svg
   width="210mm"
   height="297mm"
   viewBox="0 0 210 297"
   version="1.1"
   id="svg1361"
   inkscape:version="1.2.2 (732a01da63, 2022-12-09)"
   sodipodi:docname="title.svg"
   xmlns:inkscape="http://www.inkscape.org/namespaces/inkscape"
   xmlns:sodipodi="http://sodipodi.sourceforge.net/DTD/sodipodi-0.dtd"
   xmlns="http://www.w3.org/2000/svg"
   xmlns:svg="http://www.w3.org/2000/svg">
  <sodipodi:namedview
     id="namedview1363"
     pagecolor="#ffffff"
     bordercolor="#000000"
     borderopacity="0.25"
     inkscape:showpageshadow="2"
     inkscape:pageopacity="0.0"
     inkscape:pagecheckerboard="0"
     inkscape:deskcolor="#d1d1d1"
     inkscape:document-units="mm"
     showgrid="false"
     inkscape:zoom="1.1705808"
     inkscape:cx="326.76087"
     inkscape:cy="358.79625"
     inkscape:window-width="1440"
     inkscape:window-height="837"
     inkscape:window-x="1432"
     inkscape:window-y="-8"
     inkscape:window-maximized="1"
     inkscape:current-layer="layer1" />
  <defs
     id="defs1358">
    <rect
       x="89.401605"
       y="241.62596"
       width="867.06073"
       height="661.40636"
       id="rect1490" />
    <rect
       x="75.176356"
       y="422.01273"
       width="625.3306"
       height="177.68957"
       id="rect1484" />
  </defs>
  <g
     inkscape:label="Layer 1"
     inkscape:groupmode="layer"
     id="layer1">
    <rect
       style="fill:#ffffff;stroke:#000000;stroke-width:0;fill-opacity:1"
       id="rect1605"
       width="190.6293"
       height="38.589954"
       x="9.6853456"
       y="70.315933"
       inkscape:export-filename="title.png"
       inkscape:export-xdpi="180"
       inkscape:export-ydpi="180" />
    <g
       aria-label="THE COLUMBUS
MUSUEM"
       transform="matrix(0.26458333,0,0,0.26458333,-33.079603,2.7123287)"
       id="text1488"
       style="font-size:64px;font-family:Elephant;-inkscape-font-specification:Elephant;text-align:center;text-anchor:middle;white-space:pre;shape-inside:url(#rect1490);shape-padding:11.9599;stroke:#000000;stroke-width:0">
      <path
         d="m 209.04367,265.10761 h 50.56 v 20.544 h -1.088 q -1.728,-3.904 -4.16,-8.256 -2.368,-4.416 -4.992,-7.68 -2.624,-3.264 -4.608,-3.264 l -2.56,-0.128 v 37.312 l 0.128,2.944 q 0.192,2.048 0.832,2.88 0.704,0.768 2.112,0.96 1.408,0.128 2.56,0.192 1.152,0.064 2.048,0.128 v 1.024 h -31.296 v -1.024 l 4.224,-0.192 q 1.92,-0.192 2.624,-0.96 0.704,-0.768 0.896,-2.88 l 0.128,-2.944 v -37.44 l -2.496,0.128 q -2.048,0 -4.544,3.072 -2.496,3.008 -5.056,7.68 -2.496,4.608 -4.224,8.448 h -1.088 z"
         id="path1494" />
      <path
         d="m 299.28367,288.59561 h -14.272 v 15.168 l 0.128,2.944 q 0,2.112 0.704,2.88 0.768,0.704 2.816,0.96 l 2.304,0.192 v 1.024 h -28.544 v -1.024 l 3.2,-0.256 q 1.856,-0.256 2.56,-1.088 0.768,-0.832 0.96,-2.816 l 0.128,-2.944 v -30.4 l -0.128,-2.944 q -0.192,-2.048 -0.896,-2.816 -0.64,-0.832 -2.624,-1.088 l -3.328,-0.256 v -1.024 h 28.672 v 1.024 l -2.304,0.192 q -2.048,0.192 -2.816,1.024 -0.704,0.768 -0.704,2.816 l -0.128,2.944 v 14.08 h 14.272 v -14.08 l -0.128,-2.944 q -0.192,-2.112 -0.896,-2.816 -0.64,-0.768 -2.624,-1.024 l -2.304,-0.192 v -1.024 h 28.672 v 1.024 l -3.328,0.256 q -1.856,0.256 -2.624,1.088 -0.704,0.832 -0.896,2.816 l -0.128,2.944 v 30.4 l 0.128,2.944 q 0.192,2.048 0.832,2.88 0.704,0.768 2.688,1.024 l 3.2,0.256 v 1.024 h -28.544 v -1.024 l 2.304,-0.192 q 2.048,-0.256 2.688,-0.96 0.64,-0.704 0.832,-2.88 l 0.128,-2.944 z"
         id="path1496" />
      <path
         d="m 349.33162,310.48361 q 2.688,-0.064 5.504,-0.064 2.816,-0.064 5.952,-0.448 3.136,-0.448 7.744,-6.336 4.608,-5.952 6.784,-12.224 h 1.024 v 20.352 h -50.304 v -1.024 q 0.832,0 1.92,-0.064 1.088,-0.128 2.432,-0.256 1.408,-0.192 2.112,-0.96 0.768,-0.832 0.96,-2.88 l 0.128,-2.944 v -30.336 l -0.128,-2.944 q -0.192,-2.048 -0.96,-2.88 -0.768,-0.832 -2.176,-1.024 -1.344,-0.192 -2.496,-0.192 -1.088,-0.064 -1.984,-0.128 v -1.024 h 49.216 v 18.944 h -1.024 q -3.264,-7.168 -7.936,-12.032 -4.672,-4.928 -7.872,-5.248 -3.136,-0.32 -5.312,-0.384 -2.176,-0.064 -2.88,-0.064 h -0.576 l -0.128,20.992 2.688,-0.128 q 3.712,-0.384 5.568,-3.456 1.92,-3.136 1.92,-7.36 h 1.216 v 23.296 h -1.216 q 0,-4.288 -1.92,-7.488 -1.856,-3.2 -5.568,-3.584 l -2.688,-0.128 z"
         id="path1498" />
      <path
         d="m 424.21162,312.53161 q -11.008,0 -18.112,-6.784 -7.04,-6.848 -7.04,-17.28 0,-10.688 6.976,-17.344 7.04,-6.72 18.112,-6.72 4.736,0 8.192,1.6 l 6.784,3.84 q 1.92,0 2.56,-1.28 0.64,-1.344 0.896,-3.776 h 1.28 v 20.224 h -1.088 q -2.816,-7.808 -4.032,-10.56 -1.152,-2.752 -3.904,-5.312 -2.752,-2.56 -7.04,-2.56 -5.568,0 -8.256,6.272 -2.688,6.272 -2.688,14.656 0,9.024 3.2,15.68 3.264,6.592 9.536,6.592 5.824,0 9.344,-4.224 3.52,-4.224 4.672,-11.008 l 1.088,0.192 q -0.896,7.68 -5.824,12.736 -4.928,5.056 -14.656,5.056 z"
         id="path1500" />
      <path
         d="m 501.52357,288.46761 q 0,10.24 -7.744,17.152 -7.744,6.912 -18.304,6.912 -11.008,0 -18.432,-6.784 -7.36,-6.848 -7.36,-17.28 0,-10.752 7.552,-17.408 7.552,-6.656 18.24,-6.656 10.688,0 18.368,6.784 7.68,6.72 7.68,17.28 z m -19.456,-17.472 q -1.92,-5.376 -6.592,-5.376 -2.368,0 -4.096,1.536 -1.728,1.536 -2.688,4.48 -0.896,2.88 -1.344,7.488 -0.384,4.544 -0.384,9.344 0,6.592 0.512,10.752 0.512,4.16 1.92,8.128 1.408,3.968 6.08,3.968 2.368,0 4.096,-1.536 1.728,-1.536 2.624,-4.416 0.96,-2.944 1.344,-7.488 0.448,-4.608 0.448,-9.408 0,-5.696 -0.384,-9.856 -0.384,-4.224 -1.536,-7.616 z"
         id="path1502" />
      <path
         d="m 535.12358,310.29161 q 3.84,0 7.616,-3.52 3.84,-3.52 6.72,-8.128 2.944,-4.608 5.312,-9.728 h 1.024 v 22.848 h -50.048 v -1.024 q 0.512,0 1.408,0 0.96,-0.064 2.816,-0.256 1.92,-0.256 2.752,-1.088 0.832,-0.832 1.024,-2.816 l 0.128,-2.944 v -30.4 l -0.128,-2.944 q -0.192,-2.048 -0.896,-2.816 -0.64,-0.832 -2.048,-1.024 -1.408,-0.192 -2.432,-0.192 -1.024,-0.064 -1.856,-0.128 v -1.024 h 30.976 v 1.024 l -4.224,0.192 q -1.92,0.192 -2.624,0.96 -0.704,0.768 -0.896,2.88 l -0.128,2.944 v 37.376 z"
         id="path1504" />
      <path
         d="m 612.6276,266.13161 q -0.832,0.064 -1.92,0.128 -1.024,0.064 -2.816,0.32 -1.728,0.256 -2.688,1.536 -0.896,1.28 -1.088,3.328 l -0.128,3.072 v 19.008 l -0.128,3.2 q -0.96,8.832 -4.8,12.352 -3.84,3.456 -11.904,3.456 -10.624,0 -16.384,-4.032 -5.76,-4.032 -5.76,-10.048 v -25.216 l -0.128,-2.944 q -0.192,-2.048 -0.896,-2.816 -0.64,-0.832 -2.624,-1.088 l -2.688,-0.256 v -1.024 h 29.952 v 1.024 q -0.832,0.064 -1.92,0.128 -1.024,0 -2.688,0.256 -1.664,0.192 -2.304,0.896 -0.64,0.704 -0.832,2.88 l -0.128,2.944 v 25.664 q 0,0.768 0.064,1.856 0.064,1.088 0.384,3.392 0.384,2.24 2.56,4.48 2.24,2.176 6.08,2.176 5.376,0 8.064,-2.688 2.752,-2.752 3.648,-6.272 0.96,-3.52 1.024,-6.016 l 0.064,-3.008 v -18.56 l -0.128,-3.072 q -0.192,-2.112 -1.088,-3.2 -0.832,-1.088 -2.56,-1.344 -1.728,-0.32 -2.88,-0.384 -1.152,-0.064 -2.176,-0.128 v -1.024 h 18.816 z"
         id="path1506" />
      <path
         d="m 621.97164,273.04361 v 29.888 l 0.128,3.072 q 0.192,2.048 1.024,3.136 0.896,1.024 2.88,1.28 l 4.48,0.32 v 1.024 h -18.432 v -1.024 q 0.96,-0.064 2.048,-0.064 1.152,-0.064 2.752,-0.256 1.6,-0.256 2.496,-1.344 0.96,-1.088 1.152,-3.072 l 0.128,-3.072 v -29.696 l -0.128,-2.944 q -0.448,-1.536 -1.408,-2.56 -0.896,-1.024 -2.24,-1.216 -1.28,-0.192 -2.56,-0.256 -1.28,-0.064 -1.92,-0.128 v -1.024 h 23.68 l 10.752,27.776 9.664,-27.776 h 23.04 v 1.024 h -1.472 q -0.64,0 -2.688,0.256 -1.984,0.256 -2.752,1.088 -0.768,0.832 -0.96,2.88 l -0.128,2.944 v 30.336 l 0.128,2.944 q 0.192,2.048 0.832,2.88 0.704,0.768 2.688,1.024 l 3.2,0.256 v 1.024 h -29.184 v -1.024 l 2.944,-0.192 q 2.048,-0.256 2.688,-0.96 0.64,-0.704 0.832,-2.88 l 0.128,-2.944 v -23.744 q 0,-1.984 0.128,-4.672 0.192,-2.752 0.384,-5.12 h -0.384 l -2.624,8.256 -11.328,33.28 h -3.968 l -15.616,-38.72 z"
         id="path1508" />
      <path
         d="m 711.3796,286.41961 q 2.688,-0.512 3.584,-3.136 0.896,-2.624 0.896,-6.656 0,-3.264 -1.216,-6.272 -1.152,-3.072 -2.944,-3.52 -1.728,-0.448 -3.264,-0.512 -1.472,-0.064 -2.624,-0.128 v 20.672 q 1.216,0 2.432,0 1.28,-0.064 3.136,-0.448 z m 2.304,25.408 -31.296,-0.064 v -1.024 h 1.984 q 1.344,-0.192 2.624,-0.32 1.28,-0.192 1.984,-0.96 0.768,-0.832 0.96,-2.88 l 0.128,-2.944 v -30.336 l -0.128,-2.944 q -0.192,-2.048 -0.96,-2.88 -0.768,-0.832 -2.176,-1.024 -1.344,-0.192 -2.496,-0.192 -1.088,-0.064 -1.984,-0.128 v -1.024 l 29.568,-0.064 q 6.016,0 9.408,0.448 3.392,0.448 5.632,1.984 2.304,1.536 3.584,3.84 1.28,2.24 1.28,5.376 0,4.672 -2.752,6.72 -2.688,2.048 -5.44,2.752 -2.688,0.64 -6.656,0.64 v 0.512 q 4.672,0 6.976,0.384 2.368,0.32 4.672,1.28 2.368,0.96 4.16,3.648 1.792,2.624 1.792,6.784 0,4.032 -1.856,6.72 -1.856,2.688 -4.736,4.032 -2.88,1.28 -7.04,1.472 -4.16,0.192 -7.232,0.192 z m 0.064,-1.856 q 2.112,-0.512 3.008,-4.032 0.96,-3.52 0.96,-7.36 0,-3.456 -1.472,-6.72 -1.408,-3.328 -3.456,-3.584 -2.048,-0.256 -3.2,-0.256 -1.088,-0.064 -1.664,-0.064 h -2.112 v 22.656 h 0.768 q 2.304,0 3.84,-0.064 1.536,-0.128 3.328,-0.576 z"
         id="path1510" />
      <path
         d="m 792.78763,266.13161 q -0.832,0.064 -1.92,0.128 -1.024,0.064 -2.816,0.32 -1.728,0.256 -2.688,1.536 -0.896,1.28 -1.088,3.328 l -0.128,3.072 v 19.008 l -0.128,3.2 q -0.96,8.832 -4.8,12.352 -3.84,3.456 -11.904,3.456 -10.624,0 -16.384,-4.032 -5.76,-4.032 -5.76,-10.048 v -25.216 l -0.128,-2.944 q -0.192,-2.048 -0.896,-2.816 -0.64,-0.832 -2.624,-1.088 l -2.688,-0.256 v -1.024 h 29.952 v 1.024 q -0.832,0.064 -1.92,0.128 -1.024,0 -2.688,0.256 -1.664,0.192 -2.304,0.896 -0.64,0.704 -0.832,2.88 l -0.128,2.944 v 25.664 q 0,0.768 0.064,1.856 0.064,1.088 0.384,3.392 0.384,2.24 2.56,4.48 2.24,2.176 6.08,2.176 5.376,0 8.064,-2.688 2.752,-2.752 3.648,-6.272 0.96,-3.52 1.024,-6.016 l 0.064,-3.008 v -18.56 l -0.128,-3.072 q -0.192,-2.112 -1.088,-3.2 -0.832,-1.088 -2.56,-1.344 -1.728,-0.32 -2.88,-0.384 -1.152,-0.064 -2.176,-0.128 v -1.024 h 18.816 z"
         id="path1512" />
      <path
         d="m 834.70767,298.06761 q 0,6.336 -5.376,10.432 -5.312,4.032 -11.584,4.032 -5.504,0 -10.88,-3.456 -5.376,-3.52 -6.208,-3.52 -2.112,0 -2.624,1.6 -0.512,1.6 -0.96,5.376 h -1.088 v -22.912 h 1.088 q 0.384,1.344 1.28,4.416 0.96,3.072 3.456,7.36 2.56,4.224 6.656,7.04 4.16,2.816 9.6,2.816 3.136,0 5.12,-1.664 1.984,-1.664 1.984,-3.968 0,-2.752 -1.472,-4.352 -1.472,-1.6 -5.312,-3.072 -3.84,-1.536 -8.128,-3.264 -4.288,-1.728 -9.088,-4.672 -4.8,-2.88 -4.8,-10.88 0,-6.272 5.056,-10.624 5.056,-4.352 11.648,-4.352 3.648,0 7.104,1.728 l 6.656,3.712 q 1.856,0 2.432,-1.536 0.576,-1.6 0.576,-3.904 h 1.216 v 16.96 h -1.152 q -0.32,-1.088 -1.344,-3.712 -0.96,-2.624 -3.84,-5.888 -2.816,-3.264 -5.632,-4.672 -2.752,-1.472 -6.656,-1.472 -2.624,0 -4.864,1.536 -2.24,1.536 -2.24,3.84 0,2.432 1.664,4.096 1.728,1.6 3.904,2.56 2.24,0.96 6.144,2.432 3.904,1.472 8.064,3.456 4.224,1.92 6.912,5.696 2.688,3.712 2.688,8.832 z"
         id="path1514" />
      <path
         d="m 359.02767,353.04361 v 29.888 l 0.128,3.072 q 0.192,2.048 1.024,3.136 0.896,1.024 2.88,1.28 l 4.48,0.32 v 1.024 h -18.432 v -1.024 q 0.96,-0.064 2.048,-0.064 1.152,-0.064 2.752,-0.256 1.6,-0.256 2.496,-1.344 0.96,-1.088 1.152,-3.072 l 0.128,-3.072 v -29.696 l -0.128,-2.944 q -0.448,-1.536 -1.408,-2.56 -0.896,-1.024 -2.24,-1.216 -1.28,-0.192 -2.56,-0.256 -1.28,-0.064 -1.92,-0.128 v -1.024 h 23.68 l 10.752,27.776 9.664,-27.776 h 23.04 v 1.024 h -1.472 q -0.64,0 -2.688,0.256 -1.984,0.256 -2.752,1.088 -0.768,0.832 -0.96,2.88 l -0.128,2.944 v 30.336 l 0.128,2.944 q 0.192,2.048 0.832,2.88 0.704,0.768 2.688,1.024 l 3.2,0.256 v 1.024 h -29.184 v -1.024 l 2.944,-0.192 q 2.048,-0.256 2.688,-0.96 0.64,-0.704 0.832,-2.88 l 0.128,-2.944 v -23.744 q 0,-1.984 0.128,-4.672 0.192,-2.752 0.384,-5.12 h -0.384 l -2.624,8.256 -11.328,33.28 h -3.968 l -15.616,-38.72 z"
         id="path1516" />
      <path
         d="m 473.45963,346.13161 q -0.832,0.064 -1.92,0.128 -1.024,0.064 -2.816,0.32 -1.728,0.256 -2.688,1.536 -0.896,1.28 -1.088,3.328 l -0.128,3.072 v 19.008 l -0.128,3.2 q -0.96,8.832 -4.8,12.352 -3.84,3.456 -11.904,3.456 -10.624,0 -16.384,-4.032 -5.76,-4.032 -5.76,-10.048 v -25.216 l -0.128,-2.944 q -0.192,-2.048 -0.896,-2.816 -0.64,-0.832 -2.624,-1.088 l -2.688,-0.256 v -1.024 h 29.952 v 1.024 q -0.832,0.064 -1.92,0.128 -1.024,0 -2.688,0.256 -1.664,0.192 -2.304,0.896 -0.64,0.704 -0.832,2.88 l -0.128,2.944 v 25.664 q 0,0.768 0.064,1.856 0.064,1.088 0.384,3.392 0.384,2.24 2.56,4.48 2.24,2.176 6.08,2.176 5.376,0 8.064,-2.688 2.752,-2.752 3.648,-6.272 0.96,-3.52 1.024,-6.016 l 0.064,-3.008 v -18.56 l -0.128,-3.072 q -0.192,-2.112 -1.088,-3.2 -0.832,-1.088 -2.56,-1.344 -1.728,-0.32 -2.88,-0.384 -1.152,-0.064 -2.176,-0.128 v -1.024 h 18.816 z"
         id="path1518" />
      <path
         d="m 515.37967,378.06761 q 0,6.336 -5.376,10.432 -5.312,4.032 -11.584,4.032 -5.504,0 -10.88,-3.456 -5.376,-3.52 -6.208,-3.52 -2.112,0 -2.624,1.6 -0.512,1.6 -0.96,5.376 h -1.088 v -22.912 h 1.088 q 0.384,1.344 1.28,4.416 0.96,3.072 3.456,7.36 2.56,4.224 6.656,7.04 4.16,2.816 9.6,2.816 3.136,0 5.12,-1.664 1.984,-1.664 1.984,-3.968 0,-2.752 -1.472,-4.352 -1.472,-1.6 -5.312,-3.072 -3.84,-1.536 -8.128,-3.264 -4.288,-1.728 -9.088,-4.672 -4.8,-2.88 -4.8,-10.88 0,-6.272 5.056,-10.624 5.056,-4.352 11.648,-4.352 3.648,0 7.104,1.728 l 6.656,3.712 q 1.856,0 2.432,-1.536 0.576,-1.6 0.576,-3.904 h 1.216 v 16.96 h -1.152 q -0.32,-1.088 -1.344,-3.712 -0.96,-2.624 -3.84,-5.888 -2.816,-3.264 -5.632,-4.672 -2.752,-1.472 -6.656,-1.472 -2.624,0 -4.864,1.536 -2.24,1.536 -2.24,3.84 0,2.432 1.664,4.096 1.728,1.6 3.904,2.56 2.24,0.96 6.144,2.432 3.904,1.472 8.064,3.456 4.224,1.92 6.912,5.696 2.688,3.712 2.688,8.832 z"
         id="path1520" />
      <path
         d="m 573.49161,346.13161 q -0.832,0.064 -1.92,0.128 -1.024,0.064 -2.816,0.32 -1.728,0.256 -2.688,1.536 -0.896,1.28 -1.088,3.328 l -0.128,3.072 v 19.008 l -0.128,3.2 q -0.96,8.832 -4.8,12.352 -3.84,3.456 -11.904,3.456 -10.624,0 -16.384,-4.032 -5.76,-4.032 -5.76,-10.048 v -25.216 l -0.128,-2.944 q -0.192,-2.048 -0.896,-2.816 -0.64,-0.832 -2.624,-1.088 l -2.688,-0.256 v -1.024 h 29.952 v 1.024 q -0.832,0.064 -1.92,0.128 -1.024,0 -2.688,0.256 -1.664,0.192 -2.304,0.896 -0.64,0.704 -0.832,2.88 l -0.128,2.944 v 25.664 q 0,0.768 0.064,1.856 0.064,1.088 0.384,3.392 0.384,2.24 2.56,4.48 2.24,2.176 6.08,2.176 5.376,0 8.064,-2.688 2.752,-2.752 3.648,-6.272 0.96,-3.52 1.024,-6.016 l 0.064,-3.008 v -18.56 l -0.128,-3.072 q -0.192,-2.112 -1.088,-3.2 -0.832,-1.088 -2.56,-1.344 -1.728,-0.32 -2.88,-0.384 -1.152,-0.064 -2.176,-0.128 v -1.024 h 18.816 z"
         id="path1522" />
      <path
         d="m 597.49165,390.48361 q 2.688,-0.064 5.504,-0.064 2.816,-0.064 5.952,-0.448 3.136,-0.448 7.744,-6.336 4.608,-5.952 6.784,-12.224 h 1.024 v 20.352 h -50.304 v -1.024 q 0.832,0 1.92,-0.064 1.088,-0.128 2.432,-0.256 1.408,-0.192 2.112,-0.96 0.768,-0.832 0.96,-2.88 l 0.128,-2.944 v -30.336 l -0.128,-2.944 q -0.192,-2.048 -0.96,-2.88 -0.768,-0.832 -2.176,-1.024 -1.344,-0.192 -2.496,-0.192 -1.088,-0.064 -1.984,-0.128 v -1.024 h 49.216 v 18.944 h -1.024 q -3.264,-7.168 -7.936,-12.032 -4.672,-4.928 -7.872,-5.248 -3.136,-0.32 -5.312,-0.384 -2.176,-0.064 -2.88,-0.064 h -0.576 l -0.128,20.992 2.688,-0.128 q 3.712,-0.384 5.568,-3.456 1.92,-3.136 1.92,-7.36 h 1.216 v 23.296 h -1.216 q 0,-4.288 -1.92,-7.488 -1.856,-3.2 -5.568,-3.584 l -2.688,-0.128 z"
         id="path1524" />
      <path
         d="m 638.38765,353.04361 v 29.888 l 0.128,3.072 q 0.192,2.048 1.024,3.136 0.896,1.024 2.88,1.28 l 4.48,0.32 v 1.024 h -18.432 v -1.024 q 0.96,-0.064 2.048,-0.064 1.152,-0.064 2.752,-0.256 1.6,-0.256 2.496,-1.344 0.96,-1.088 1.152,-3.072 l 0.128,-3.072 v -29.696 l -0.128,-2.944 q -0.448,-1.536 -1.408,-2.56 -0.896,-1.024 -2.24,-1.216 -1.28,-0.192 -2.56,-0.256 -1.28,-0.064 -1.92,-0.128 v -1.024 h 23.68 l 10.752,27.776 9.664,-27.776 h 23.04 v 1.024 h -1.472 q -0.64,0 -2.688,0.256 -1.984,0.256 -2.752,1.088 -0.768,0.832 -0.96,2.88 l -0.128,2.944 v 30.336 l 0.128,2.944 q 0.192,2.048 0.832,2.88 0.704,0.768 2.688,1.024 l 3.2,0.256 v 1.024 h -29.184 v -1.024 l 2.944,-0.192 q 2.048,-0.256 2.688,-0.96 0.64,-0.704 0.832,-2.88 l 0.128,-2.944 v -23.744 q 0,-1.984 0.128,-4.672 0.192,-2.752 0.384,-5.12 h -0.384 l -2.624,8.256 -11.328,33.28 h -3.968 l -15.616,-38.72 z"
         id="path1526" />
    </g>
  </g>
</svg>
