{"accessors" : [{"bufferView" : 0, "byteOffset" : 0, "componentType" : 5123, "count" : 288, "type" : "SCALAR", "max" : [242], "min" : [0]}, {"bufferView" : 1, "byteOffset" : 0, "componentType" : 5126, "count" : 243, "type" : "VEC3", "max" : [3.475217819213867, 18.369009017944336, 0], "min" : [-3.475217819213867, -0.4964596927165985, -7.888609052210118E-31], "name" : "POSITION"}, {"bufferView" : 1, "byteOffset" : 12, "componentType" : 5126, "count" : 243, "type" : "VEC2", "max" : [3.475217819213867, 0.4964596927165985], "min" : [-3.475217819213867, -18.369009017944336], "name" : "TEXCOORD_0"}], "asset" : {"generator" : "Aspose.3D 23.2", "version" : "2.0"}, "buffers" : [{"uri" : "data:application/octet-stream;base64,", "byteLength" : 6344}], "bufferViews" : [{"buffer" : 0, "byteOffset" : 0, "byteLength" : 576, "target" : 34963}, {"buffer" : 0, "byteOffset" : 580, "byteLength" : 5760, "byteStride" : 20, "target" : 34962}], "cameras" : [{"perspective" : {"aspectRatio" : 1.3333333333333333, "yfov" : 0.43833943764363487, "zfar" : 1000, "znear" : 1}, "type" : "perspective", "name" : "Camera"}], "materials" : [{"name" : "FrontCol", "pbrMetallicRoughness" : {"baseColorFactor" : [1, 1, 1, 1], "metallicFactor" : 0, "roughnessFactor" : 0}, "emissiveFactor" : [0, 0, 0], "alphaMode" : "OPAQUE", "doubleSided" : false}], "meshes" : [{"primitives" : [{"attributes" : {"POSITION" : 1, "TEXCOORD_0" : 2}, "indices" : 0, "material" : 0, "mode" : 4}], "name" : "Model"}], "nodes" : [{"camera" : 0, "matrix" : [1, 0, 0, 0, 0, 1, 0, 0, 0, 0, 1, 0, 0.2478446364402771, -5.59429407119751, 2.9262638092041016, 1], "name" : "Camera"}, {"matrix" : [-1, 0, 0, 0, 0, 0, 1, 0, 0, 1, 0, 0, 0, 0, 0, 1], "mesh" : 0, "name" : "Model"}], "scene" : 0, "scenes" : [{"nodes" : [0, 1]}]}